<?xml version="1.0" encoding="UTF-8"?>
<svg version="1.1" xmlns="http://www.w3.org/2000/svg" width="1080" height="1080">
<path d="M0 0 C143.55 0 287.1 0 435 0 C435 35.31 435 70.62 435 107 C384.84 107 334.68 107 283 107 C283 180.92 283 254.84 283 331 C239.77 331 196.54 331 152 331 C152 257.08 152 183.16 152 107 C101.84 107 51.68 107 0 107 C0 71.69 0 36.38 0 0 Z " fill="#000000" transform="translate(321,368)"/>
<path d="M0 0 C51.48 0 102.96 0 156 0 C156 51.48 156 102.96 156 156 C144.78 156 133.56 156 122 156 C122 116.07 122 76.14 122 35 C81.74 35 41.48 35 0 35 C0 23.45 0 11.9 0 0 Z " fill="#000000" transform="translate(643,323)"/>
<path d="M0 0 C22.44 0 44.88 0 68 0 C68 22.44 68 44.88 68 68 C45.56 68 23.12 68 0 68 C0 45.56 0 23.12 0 0 Z " fill="#000000" transform="translate(350,524)"/>
<path d="M0 0 C4.95 0 9.9 0 15 0 C15 16.17 15 32.34 15 49 C31.5 49 48 49 65 49 C65 54.28 65 59.56 65 65 C43.55 65 22.1 65 0 65 C0 43.55 0 22.1 0 0 Z " fill="#000000" transform="translate(326,553)"/>
<path d="M0 0 C2.64 0 5.28 0 8 0 C9.17094005 2.7899439 10.33690927 5.58178597 11.5 8.375 C11.83386719 9.1690625 12.16773438 9.963125 12.51171875 10.78125 C12.82753906 11.54179688 13.14335937 12.30234375 13.46875 13.0859375 C13.76201172 13.7876709 14.05527344 14.4894043 14.35742188 15.21240234 C15 17 15 17 15 19 C15.66 19 16.32 19 17 19 C17.1134375 18.31421875 17.226875 17.6284375 17.34375 16.921875 C18.10167983 13.54728264 19.24597273 10.47255845 20.5 7.25 C20.9434375 6.10015625 21.386875 4.9503125 21.84375 3.765625 C23 1 23 1 24 0 C26.64 0 29.28 0 32 0 C32 9.57 32 19.14 32 29 C29.69 29 27.38 29 25 29 C24.505 22.565 24.505 22.565 24 16 C22.35 20.29 20.7 24.58 19 29 C17.02 29 15.04 29 13 29 C11.35 25.04 9.7 21.08 8 17 C7.67 20.96 7.34 24.92 7 29 C4.69 29 2.38 29 0 29 C0 19.43 0 9.86 0 0 Z " fill="#000000" transform="translate(446,740)"/>
<path d="M0 0 C4.38253554 2.19126777 7.16669816 4.41674539 9 9 C9.71062194 13.73747957 9.47089401 17.05821199 7.3125 21.375 C3.54719793 25.64912668 0.79702011 27.17577136 -4.875 27.5625 C-9.76503463 27.43092956 -12.23782417 25.92630873 -15.72265625 22.60546875 C-18.82179226 18.71022441 -18.47383009 13.72167529 -18 9 C-16.52406483 5.76699914 -14.73407055 3.27839213 -12 1 C-7.92905226 -0.35698258 -4.25646256 -0.52387231 0 0 Z M-12 9 C-11 11 -11 11 -11 11 Z M-13 11 C-12 15 -12 15 -12 15 Z M2 9 C1.67 9.99 1.34 10.98 1 12 C-1.31 11.67 -3.62 11.34 -6 11 C-6 12.65 -6 14.3 -6 16 C-5.01 16 -4.02 16 -3 16 C-3 15.34 -3 14.68 -3 14 C-1.35 14 0.3 14 2 14 C1.67 15.65 1.34 17.3 1 19 C1.66 18.67 2.32 18.34 3 18 C3.84239972 15.11304814 3.84239972 15.11304814 4 12 C3.34 11.01 2.68 10.02 2 9 Z M-12 16 C-11 18 -11 18 -11 18 Z " fill="#000000" transform="translate(639,667)"/>
<path d="M0 0 C7 0 7 0 8.71264648 1.37695312 C9.28607788 2.31958008 9.28607788 2.31958008 9.87109375 3.28125 C10.51401367 4.29638672 10.51401367 4.29638672 11.16992188 5.33203125 C11.58822266 6.04746094 12.00652344 6.76289062 12.4375 7.5 C12.88287109 8.21542969 13.32824219 8.93085937 13.78710938 9.66796875 C14.88054585 11.43157596 15.94334866 13.2141104 17 15 C17.33 10.05 17.66 5.1 18 0 C20.31 0 22.62 0 25 0 C25 9.57 25 19.14 25 29 C18 29 18 29 16.28735352 27.62304688 C15.90506592 26.99462891 15.52277832 26.36621094 15.12890625 25.71875 C14.48598633 24.70361328 14.48598633 24.70361328 13.83007812 23.66796875 C13.41177734 22.95253906 12.99347656 22.23710938 12.5625 21.5 C12.11712891 20.78457031 11.67175781 20.06914063 11.21289062 19.33203125 C10.11945415 17.56842404 9.05665134 15.7858896 8 14 C7.67 18.95 7.34 23.9 7 29 C4.69 29 2.38 29 0 29 C0 19.43 0 9.86 0 0 Z " fill="#000000" transform="translate(751,740)"/>
<path d="M0 0 C3.57153149 3.57153149 4.42972928 6.48267073 4.5 11.5 C4.40009489 16.4952557 3.60913691 19.3583655 0.125 23.125 C-3.75071876 26.54475185 -7.54226728 26.57960364 -12.5078125 26.41015625 C-17.03267556 25.86508199 -19.15492994 23.92507785 -22.125 20.625 C-25.04719028 16.45044245 -25.28568202 13.13532069 -24.875 8.125 C-23.47824064 3.98785951 -21.87817385 0.9223946 -18.4375 -1.8125 C-11.6533569 -4.62543738 -6.16693019 -4.02191099 0 0 Z M-16.3125 5.1875 C-18.27380697 8.87475711 -18.46449998 10.99850014 -17.875 15.125 C-16.485911 18.17413936 -16.485911 18.17413936 -13.875 20.125 C-9.90151567 20.7635957 -7.85230682 20.79368361 -4.5 18.5 C-2.47562196 15.54129363 -1.94678783 13.71439134 -1.875 10.125 C-3.43883934 5.8144214 -3.43883934 5.8144214 -6.875 3.125 C-12.0440402 2.54227596 -12.0440402 2.54227596 -16.3125 5.1875 Z " fill="#000000" transform="translate(590.875,742.875)"/>
<path d="M0 0 C3.20978308 4.6687754 4.62362136 9.61591758 3.68359375 15.28515625 C2.19530845 19.83505701 0.16131077 22.3725572 -3.9375 25 C-7.62137707 26.84193854 -11.90756153 26.36231308 -15.9375 26 C-18.875 24.6875 -18.875 24.6875 -20.9375 23 C-21.7728125 22.3503125 -21.7728125 22.3503125 -22.625 21.6875 C-25.50919017 17.97925549 -26.1565052 14.15378752 -25.9375 9.5625 C-25.19473797 4.44953345 -22.9445983 1.20206049 -18.9375 -2 C-12.24762299 -5.15560237 -5.98380094 -4.07407724 0 0 Z M-17.4375 5.0625 C-19.33225662 8.77306506 -19.59904724 10.88370608 -18.9375 15 C-16.45820473 18.4272611 -15.08267131 19.81303325 -10.875 20.5 C-7.50872759 19.92701746 -6.14746536 19.6192182 -3.9375 17 C-2.84220467 12.47277931 -2.33542883 10.28624295 -4.3125 6.0625 C-5.77392269 4.12430473 -5.77392269 4.12430473 -6.9375 3 C-12.68248575 2.30309999 -12.68248575 2.30309999 -17.4375 5.0625 Z " fill="#000000" transform="translate(743.9375,743)"/>
<path d="M0 0 C2.35125 -0.061875 4.7025 -0.12375 7.125 -0.1875 C7.85348145 -0.21481201 8.58196289 -0.24212402 9.33251953 -0.27026367 C14.8304816 -0.33960331 18.48868507 1.04249032 22.7890625 4.39453125 C25.3260706 7.75811296 25.74998538 11.88390566 26 16 C25.272627 20.4943995 23.75294798 23.26587572 20.5 26.4375 C16.12080809 29.17449494 12.30392771 29.12262486 7.3125 29.0625 C3.6928125 29.0315625 3.6928125 29.0315625 0 29 C0 19.43 0 9.86 0 0 Z M6 6 C6 11.61 6 17.22 6 23 C13.20555099 23.50607514 13.20555099 23.50607514 16.4375 22 C18.8131275 18.95919679 19.20488011 15.75369635 19 12 C17.66048669 9.00204165 16.9444025 7.47220125 14 6 C11.36 6 8.72 6 6 6 Z " fill="#000000" transform="translate(599,740)"/>
<path d="M0 0 C3.8053125 -0.12375 3.8053125 -0.12375 7.6875 -0.25 C8.87218872 -0.30462402 8.87218872 -0.30462402 10.08081055 -0.36035156 C13.90260839 -0.42027101 15.63709783 -0.23202728 18.95703125 1.890625 C21.38540064 4.397928 21.92749149 5.3474234 22.3125 8.8125 C21.92909089 12.72327296 20.7456925 14.2543075 18 17 C17.34 17 16.68 17 16 17 C16.433125 17.69867187 16.86625 18.39734375 17.3125 19.1171875 C17.869375 20.02726563 18.42625 20.93734375 19 21.875 C19.556875 22.77992188 20.11375 23.68484375 20.6875 24.6171875 C22 27 22 27 22 29 C18.875 29.5625 18.875 29.5625 15 29 C12.23537535 26.03147678 9 22.19954713 9 18 C8.34 18 7.68 18 7 18 C7 21.63 7 25.26 7 29 C4.69 29 2.38 29 0 29 C0 19.43 0 9.86 0 0 Z M7 6 C7 8.31 7 10.62 7 13 C9.33294775 13.04241723 11.66702567 13.04092937 14 13 C15.28322547 11.9404123 15.28322547 11.9404123 15.125 9.5 C15.28322547 7.0595877 15.28322547 7.0595877 14 6 C11.66702567 5.95907063 9.33294775 5.95758277 7 6 Z " fill="#000000" transform="translate(542,740)"/>
<path d="M0 0 C4.19140823 1.87116439 6.05921911 3.64366983 7.875 7.75 C8.24625 8.8225 8.6175 9.895 9 11 C5.75 11.25 5.75 11.25 2 11 C0.64631404 9.68733482 -0.68799596 8.35432675 -2 7 C-6.10777749 6.49700684 -7.50875983 6.67250655 -11 9 C-12.13713546 14.27870168 -12.13713546 14.27870168 -11.1875 19.4375 C-10.06705694 21.15043305 -10.06705694 21.15043305 -8 22 C-5.0842309 22.41702122 -5.0842309 22.41702122 -2 22 C-1.360625 21.34 -0.72125 20.68 -0.0625 20 C2 18 2 18 5.75 17.75 C6.8225 17.8325 7.895 17.915 9 18 C7.58321113 22.09294562 6.60034966 24.42893569 3.4375 27.4375 C-1.16045314 29.5274787 -5.02572723 29.69872728 -10 29 C-13.83108507 27.28823859 -17.14205426 24.99652793 -18.8359375 21.0546875 C-20.33050492 15.01143663 -19.99163377 10.52383806 -17 5 C-12.25751887 -0.80953939 -7.24658615 -1.1430627 0 0 Z " fill="#000000" transform="translate(674,740)"/>
<path d="M0 0 C1.98 0 3.96 0 6 0 C6.33 3.3 6.66 6.6 7 10 C7.47308594 9.278125 7.94617188 8.55625 8.43359375 7.8125 C13.77054227 0.32204594 13.77054227 0.32204594 17.53515625 -0.6640625 C19.76757111 -0.6286835 21.81615008 -0.45496873 24 0 C20.61227103 4.69159716 17.21814817 9.0299782 13 13 C14.41339522 17.31784475 16.52365662 19.96159146 19.625 23.25 C24 27.9148265 24 27.9148265 24 29 C20.80217592 29.66621335 18.17767124 29.83236381 15 29 C11.807436 26.01188592 9.39117202 22.64865485 7 19 C6.67 22.3 6.34 25.6 6 29 C4.02 29 2.04 29 0 29 C0 19.43 0 9.86 0 0 Z " fill="#000000" transform="translate(368,740)"/>
<path d="M0 0 C1.98 0 3.96 0 6 0 C6.01981934 0.55985596 6.03963867 1.11971191 6.06005859 1.6965332 C6.15537783 4.23565854 6.26502753 6.77396888 6.375 9.3125 C6.4059375 10.19357422 6.436875 11.07464844 6.46875 11.98242188 C6.50742187 12.82998047 6.54609375 13.67753906 6.5859375 14.55078125 C6.6173584 15.33106689 6.6487793 16.11135254 6.68115234 16.9152832 C6.89587889 19.30155768 6.89587889 19.30155768 9 22 C11.58380177 22.25030977 11.58380177 22.25030977 14 22 C15.61635488 19.13026116 16.2733418 16.95535797 16.4140625 13.671875 C16.45273437 12.87265625 16.49140625 12.0734375 16.53125 11.25 C16.5621875 10.425 16.593125 9.6 16.625 8.75 C16.66367187 7.90953125 16.70234375 7.0690625 16.7421875 6.203125 C16.83615836 4.13576618 16.91915564 2.06791373 17 0 C18.98 0 20.96 0 23 0 C23.08741124 3.56234428 23.14052896 7.12441108 23.1875 10.6875 C23.21263672 11.69490234 23.23777344 12.70230469 23.26367188 13.74023438 C23.35826939 23.29458366 23.35826939 23.29458366 20 27 C15.78349842 29.89281813 10.91586348 29.66022115 6 29 C2.44319828 26.89495409 1.30531064 25.91593192 0 22 C-0.08178114 20.29983156 -0.10749501 18.59663703 -0.09765625 16.89453125 C-0.09443359 15.91162109 -0.09121094 14.92871094 -0.08789062 13.91601562 C-0.07951172 12.89185547 -0.07113281 11.86769531 -0.0625 10.8125 C-0.05798828 9.77673828 -0.05347656 8.74097656 -0.04882812 7.67382812 C-0.0370401 5.11582734 -0.02058515 2.55794267 0 0 Z " fill="#000000" transform="translate(482,740)"/>
<path d="M0 0 C1.98 0 3.96 0 6 0 C6.04898438 1.25296875 6.09796875 2.5059375 6.1484375 3.796875 C6.22348583 5.44793821 6.29903277 7.09897881 6.375 8.75 C6.4059375 9.575 6.436875 10.4 6.46875 11.25 C6.50742187 12.04921875 6.54609375 12.8484375 6.5859375 13.671875 C6.6173584 14.4050293 6.6487793 15.13818359 6.68115234 15.89355469 C7.03772523 18.24922918 7.83662883 19.93450591 9 22 C11.41619823 22.25030977 11.41619823 22.25030977 14 22 C16.05127844 18.92308234 16.27260872 18.06355001 16.4140625 14.55078125 C16.45273437 13.70322266 16.49140625 12.85566406 16.53125 11.98242188 C16.5621875 11.10134766 16.593125 10.22027344 16.625 9.3125 C16.66367187 8.41982422 16.70234375 7.52714844 16.7421875 6.60742188 C16.83640218 4.4051538 16.92201588 2.20289278 17 0 C18.98 0 20.96 0 23 0 C23.08741124 3.56234428 23.14052896 7.12441108 23.1875 10.6875 C23.21263672 11.69490234 23.23777344 12.70230469 23.26367188 13.74023438 C23.35826939 23.29458366 23.35826939 23.29458366 20 27 C15.79988532 29.87284351 10.89205954 29.79951135 6 29 C3.17575712 26.80977082 1.58491397 25.16982793 0 22 C-0.08426094 20.3325394 -0.10725143 18.66174813 -0.09765625 16.9921875 C-0.09443359 16.00605469 -0.09121094 15.01992188 -0.08789062 14.00390625 C-0.07951172 12.97136719 -0.07113281 11.93882812 -0.0625 10.875 C-0.05798828 9.83472656 -0.05347656 8.79445313 -0.04882812 7.72265625 C-0.03701952 5.14838038 -0.02055075 2.57421854 0 0 Z " fill="#000000" transform="translate(628,740)"/>
<path d="M0 0 C2.536875 -0.103125 5.07375 -0.20625 7.6875 -0.3125 C8.47729248 -0.35802002 9.26708496 -0.40354004 10.08081055 -0.45043945 C14.11496493 -0.52950051 15.63297241 -0.27479029 18.984375 2.234375 C21.57940855 5.79500243 21.69264042 7.65483195 21.40234375 11.91015625 C21 14 21 14 19.625 16.5 C15.53640165 18.83634191 11.67874732 18.75375014 7 19 C7 22.3 7 25.6 7 29 C4.69 29 2.38 29 0 29 C0 19.43 0 9.86 0 0 Z M7 5 C7 7.64 7 10.28 7 13 C9.91652174 13.16681109 9.91652174 13.16681109 13 13 C13.66 12.34 14.32 11.68 15 11 C14.67958603 8.39719432 14.67958603 8.39719432 14 6 C11.69 5.67 9.38 5.34 7 5 Z " fill="#000000" transform="translate(518,740)"/>
<path d="M0 0 C5.94 0 11.88 0 18 0 C18 1.65 18 3.3 18 5 C14.37 5 10.74 5 7 5 C7 7.31 7 9.62 7 12 C10.3 12 13.6 12 17 12 C17 13.65 17 15.3 17 17 C13.7 17 10.4 17 7 17 C7 19.31 7 21.62 7 24 C10.63 24 14.26 24 18 24 C18 25.65 18 27.3 18 29 C12.06 29 6.12 29 0 29 C0 19.43 0 9.86 0 0 Z " fill="#000000" transform="translate(425,740)"/>
<path d="M0 0 C7.59 0 15.18 0 23 0 C23 1.65 23 3.3 23 5 C20.36 5 17.72 5 15 5 C15 12.92 15 20.84 15 29 C12.69 29 10.38 29 8 29 C8 21.08 8 13.16 8 5 C5.36 5 2.72 5 0 5 C0 3.35 0 1.7 0 0 Z " fill="#000000" transform="translate(332,740)"/>
<path d="M0 0 C7.26 0 14.52 0 22 0 C22 1.65 22 3.3 22 5 C19.36 5 16.72 5 14 5 C14 12.92 14 20.84 14 29 C11.69 29 9.38 29 7 29 C7 21.08 7 13.16 7 5 C4.69 5 2.38 5 0 5 C0 3.35 0 1.7 0 0 Z " fill="#000000" transform="translate(401,740)"/>
<path d="M0 0 C7.26 0 14.52 0 22 0 C22 1.65 22 3.3 22 5 C19.69 5 17.38 5 15 5 C15 12.92 15 20.84 15 29 C12.69 29 10.38 29 8 29 C8 21.08 8 13.16 8 5 C5.36 5 2.72 5 0 5 C0 3.35 0 1.7 0 0 Z " fill="#000000" transform="translate(299,740)"/>
<path d="M0 0 C7.26 0 14.52 0 22 0 C22 1.65 22 3.3 22 5 C19.36 5 16.72 5 14 5 C14 12.92 14 20.84 14 29 C12.02 29 10.04 29 8 29 C8 21.08 8 13.16 8 5 C5.36 5 2.72 5 0 5 C0 3.35 0 1.7 0 0 Z " fill="#000000" transform="translate(684,740)"/>
<path d="M0 0 C2.31 0 4.62 0 7 0 C7 9.57 7 19.14 7 29 C4.69 29 2.38 29 0 29 C0 19.43 0 9.86 0 0 Z " fill="#000000" transform="translate(708,740)"/>
<path d="M0 0 C1.98 0 3.96 0 6 0 C6 9.57 6 19.14 6 29 C4.02 29 2.04 29 0 29 C0 19.43 0 9.86 0 0 Z " fill="#000000" transform="translate(357,740)"/>
<path d="M0 0 C1.98 0 3.96 0 6 0 C6 9.57 6 19.14 6 29 C4.02 29 2.04 29 0 29 C0 19.43 0 9.86 0 0 Z " fill="#000000" transform="translate(324,740)"/>
</svg>
